<?xml version="1.0" encoding="UTF-8"?>
<svg version="1.1" xmlns="http://www.w3.org/2000/svg" width="1024" height="1024"
  viewBox="0 0 1024 1024">
  <defs>
    <!-- 把原来的“白圈”路径定义成一个可复用的路径 -->
    <path id="holePath"
      d="M0 0 C0.74 0.28 1.47 0.55 2.23 0.84 C15.03 6.38 23.68 18.62 29 31 C33.46 44.16 31.34 56.98 25.94 69.45 C19.33 82.57 8.66 90.02 -4.68 95.24 C-16.42 99.09 -29.85 98.03 -41 93 C-41.79 92.65 -42.57 92.3 -43.38 91.94 C-55.29 85.96 -64.5 75.72 -68.88 63.12 C-73.21 48.7 -71.69 33.82 -64.63 20.55 C-56.48 7.83 -45.28 0.94 -31.18 -3.59 C-20.49 -5.62 -10.01 -3.97 0 0 Z"
    />
    <!-- 蒙版：白色=保留，黑色=挖掉 -->
    <mask id="holeMask" maskUnits="userSpaceOnUse">
      <rect x="0" y="0" width="1024" height="1024" fill="white" />
      <!-- 用“白圈”路径作为黑色遮罩来挖孔（注意 transform 与原文件一致） -->
      <use href="#holePath" transform="translate(532,465)" fill="black" />
    </mask>
  </defs>

  <!-- 把原来的“蓝色外形们”放进一个组，并套上蒙版；填充改成黑色 -->
  <g mask="url(#holeMask)" transform="translate(-332,-332) scale(1.65)" fill="#000000">
    <path
      d="M0 0 C1.57 0 1.57 0 3.17 0 C21.34 0.04 38.91 1.12 56.81 4.38 C58.46 4.67 58.46 4.67 60.14 4.98 C87.75 10.2 114.73 19.8 139.81 32.38 C140.59 32.76 141.37 33.14 142.17 33.54 C181.45 53.05 216.99 82.81 243.53 117.7 C244.75 119.29 246 120.85 247.26 122.41 C281.27 164.9 300.42 218.95 307.81 272.38 C307.95 273.29 308.08 274.2 308.21 275.14 C308.52 277.56 308.69 279.94 308.81 282.38 C308.85 283.04 308.89 283.71 308.93 284.4 C309.79 301.45 309.79 301.45 305.38 306.96 C301.12 310.8 296.36 313.13 290.62 313.69 C284.62 313.19 279.95 311 275.94 306.44 C272.43 301.38 271.51 297.15 270.92 291.04 C270.77 289.58 270.62 288.12 270.47 286.66 C270.39 285.9 270.32 285.14 270.24 284.35 C268.04 262.66 264 242 256.81 221.38 C256.57 220.69 256.34 220 256.09 219.3 C245.7 189.77 230.59 162.65 210.81 138.38 C210.37 137.83 209.93 137.28 209.47 136.72 C198.26 123.01 185.88 110.18 171.81 99.38 C170.54 98.36 169.26 97.35 167.99 96.33 C137.53 72.26 102.21 56.3 64.81 46.38 C63.63 46.05 62.45 45.72 61.23 45.39 C50.65 42.68 39.65 41.59 28.81 40.38 C27.93 40.28 27.05 40.18 26.14 40.07 C-39.67 33.36 -108.63 53.61 -161.19 93.38 C-162.03 94.01 -162.03 94.01 -162.9 94.65 C-172.6 101.92 -181.46 109.96 -190.19 118.38 C-191.13 119.27 -192.07 120.17 -193.04 121.1 C-198.92 126.83 -204.13 132.92 -209.19 139.38 C-209.67 139.97 -210.14 140.57 -210.64 141.18 C-229.58 164.82 -243.97 190.89 -254.19 219.38 C-254.48 220.19 -254.78 221.01 -255.08 221.86 C-269.45 262.74 -272.36 308.72 -265.19 351.38 C-264.91 353.07 -264.91 353.07 -264.62 354.8 C-260.23 380.22 -252.7 405.24 -241.19 428.38 C-240.82 429.13 -240.45 429.88 -240.06 430.65 C-231.45 447.99 -221.38 464.32 -209.19 479.38 C-208.48 480.27 -207.78 481.16 -207.06 482.09 C-165.48 534.31 -101.98 570.07 -35.6 578.12 C37.95 585.74 112.31 566.64 170.19 519.75 C172.75 517.64 175.28 515.52 177.81 513.38 C178.68 512.64 179.55 511.91 180.44 511.15 C192.48 500.6 204.12 489.14 213.81 476.38 C214.54 475.44 215.28 474.5 216.03 473.53 C239.22 443.36 255.68 408.08 264.25 371.05 C266.17 363.25 268.94 357.33 275.44 352.38 C281.27 350.65 287.37 350.15 293.19 352.22 C298.28 355.08 301.64 358.97 303.81 364.38 C304.87 372.04 302.89 379.24 300.81 386.56 C300.5 387.7 300.18 388.84 299.85 390.01 C288.05 431.54 269.43 470.04 241.81 503.38 C241.16 504.18 241.16 504.18 240.5 505 C228.94 519.25 215.81 532.52 201.81 544.38 C200.92 545.13 200.92 545.13 200.01 545.91 C156.3 582.82 102.12 608.58 44.92 615.13 C42.73 615.38 40.54 615.68 38.35 615.98 C-40.4 625.86 -123.67 603.39 -186.3 554.86 C-203.83 541.06 -221.27 525.6 -235.09 508.03 C-237.34 505.18 -239.7 502.44 -242.06 499.69 C-269.45 466.76 -287.41 426.54 -298.19 385.38 C-298.42 384.48 -298.66 383.59 -298.9 382.68 C-300.56 376.28 -301.95 369.86 -303.19 363.38 C-303.39 362.35 -303.58 361.32 -303.79 360.27 C-309.8 327.5 -309.94 291.19 -304.19 258.38 C-303.99 257.27 -303.8 256.16 -303.6 255.03 C-294.66 205.95 -274.76 157.32 -243.19 118.38 C-242.45 117.45 -241.71 116.52 -240.95 115.56 C-227.23 98.45 -211.66 81.69 -194.19 68.38 C-193.22 67.61 -192.26 66.84 -191.27 66.04 C-137.05 22.96 -69.06 -0.14 0 0 Z"
      transform="translate(511.1875,202.625)" />
    <path
      d="M0 0 C1.58 1.15 1.58 1.15 3.19 2.33 C9.91 7.33 16.15 12.72 22.25 18.46 C24.18 20.25 26.11 21.94 28.14 23.6 C31.89 26.75 34.86 30.27 38 34 C38.74 34.84 39.48 35.68 40.25 36.55 C69.59 70.5 89.97 116.41 90.2 161.65 C90.21 162.55 90.21 163.45 90.22 164.38 C90.23 166.27 90.24 168.17 90.24 170.06 C90.25 172.9 90.28 175.74 90.31 178.57 C90.38 190.37 89.39 201.45 87 213 C86.8 213.97 86.6 214.95 86.4 215.95 C85.89 218.27 85.34 220.57 84.75 222.88 C84.54 223.69 84.33 224.51 84.12 225.36 C71.97 271.45 44.28 312.55 6 341 C5.44 341.42 4.88 341.85 4.31 342.28 C-12.58 355.11 -31.59 364.76 -51.5 371.94 C-52.34 372.24 -53.17 372.55 -54.04 372.87 C-59.79 374.87 -64.75 376.09 -70.73 374.08 C-76.61 371.04 -80.81 368.57 -83 362 C-83.66 354.55 -83.64 349.03 -79 343 C-74.97 339.25 -70.89 337.58 -65.81 335.75 C-64.19 335.14 -62.57 334.52 -60.96 333.91 C-60.13 333.59 -59.31 333.28 -58.46 332.95 C-38.78 325.33 -21.74 315.17 -5.7 301.45 C-4.02 300.02 -2.32 298.63 -0.61 297.24 C2.03 295.27 2.03 295.27 3 293 C3.66 293 4.32 293 5 293 C5.24 292.44 5.47 291.88 5.72 291.3 C7.29 288.48 9.25 286.51 11.5 284.19 C17.54 277.65 22.31 270.54 27 263 C28.05 261.33 28.05 261.33 29.12 259.63 C41.4 239.25 47.71 216.39 51 193 C51.19 191.78 51.37 190.56 51.56 189.3 C56.63 147.39 44.38 104.45 19.23 70.82 C-10.59 33.11 -51.28 8.87 -99.26 2.71 C-141.51 -2.06 -185.36 7.92 -220 33 C-221.02 33.74 -222.05 34.47 -223.1 35.23 C-235.81 44.6 -247.55 55.33 -257 68 C-257.39 68.52 -257.79 69.04 -258.2 69.58 C-285.54 105.7 -296.71 150.44 -290.81 195.38 C-286.05 227.83 -272.77 259.28 -251 284 C-249.89 285.28 -249.89 285.28 -248.75 286.58 C-246.54 289.08 -244.28 291.55 -242 294 C-241.3 294.75 -240.61 295.5 -239.89 296.27 C-215.08 322.08 -178.29 339.32 -142.97 343.63 C-141.65 343.8 -141.65 343.8 -140.29 343.98 C-138.57 344.19 -136.84 344.39 -135.1 344.56 C-128.83 345.34 -124.48 347.5 -120 352 C-116.37 357.46 -115.39 362.23 -116.39 368.71 C-117.88 374.3 -121.33 377.81 -126 381 C-133.52 385.18 -143.33 382.7 -151.38 381.31 C-152.95 381.04 -152.95 381.04 -154.57 380.76 C-210.76 370.78 -259.39 339.19 -292.41 292.79 C-296.62 286.73 -300.36 280.41 -304 274 C-304.34 273.41 -304.68 272.83 -305.03 272.22 C-332.13 225.47 -337.28 168.76 -324 117 C-314.65 83.13 -296.22 53.2 -272 28 C-271.48 27.45 -270.96 26.91 -270.43 26.34 C-262.54 18.07 -254.26 10.7 -245 4 C-244.01 3.28 -244.01 3.28 -243 2.55 C-172.08 -48.05 -71.58 -52.47 0 0 Z"
      transform="translate(632,339)" />
    <path
      d="M0 0 C20.98 15.05 34.96 35.96 39.38 61.63 C42.65 85.67 36 109.54 21.69 128.9 C18.86 132.42 15.88 135.7 12.69 138.9 C12.01 139.59 11.34 140.27 10.65 140.98 C-5.3 156.18 -27.11 163.85 -48.94 164.21 C-75.51 163.55 -98.1 153.47 -116.45 134.18 C-121.19 128.94 -124.8 123.02 -128.31 116.9 C-129.07 115.61 -129.07 115.61 -129.84 114.29 C-139.58 96.27 -141.72 71.36 -136.69 51.59 C-135.95 49.34 -135.16 47.11 -134.31 44.9 C-133.88 43.72 -133.44 42.54 -132.99 41.32 C-123.82 18.21 -106.75 1.78 -84.28 -8.27 C-56.66 -19.84 -24.97 -15.81 0 0 Z"
      transform="translate(561.3125,437.09765625)" />
  </g>
</svg>
